<svg width="835" height="315" viewBox="0 0 835 315" fill="none" xmlns="http://www.w3.org/2000/svg">
<g clip-path="url(#clip0_150_2)">
<path d="M0.602478 256.803V199.814L124.471 4.63608H175.111V81.9988H145.731L73.2407 196.862V199.224H252.622V256.803H0.602478ZM146.617 307V239.381L148.094 214.431V4.63608H216.45V307H146.617ZM415.984 314.382C389.606 314.382 366.869 308.132 347.775 295.632C328.68 283.033 313.966 264.972 303.631 241.448C293.296 217.826 288.178 189.43 288.276 156.261C288.375 123.091 293.542 94.9417 303.778 71.8117C314.113 48.5832 328.779 30.9158 347.775 18.8094C366.869 6.6046 389.606 0.502197 415.984 0.502197C442.362 0.502197 465.098 6.6046 484.193 18.8094C503.386 30.9158 518.15 48.5832 528.485 71.8117C538.819 95.0402 543.937 123.19 543.839 156.261C543.839 189.529 538.672 217.974 528.337 241.596C518.002 265.218 503.288 283.279 484.193 295.779C465.197 308.181 442.46 314.382 415.984 314.382ZM415.984 254.588C431.732 254.588 444.478 246.567 454.222 230.523C463.966 214.381 468.789 189.627 468.691 156.261C468.691 134.41 466.476 116.398 462.047 102.225C457.618 87.9535 451.466 77.3235 443.592 70.3353C435.718 63.3471 426.515 59.853 415.984 59.853C400.334 59.853 387.686 67.7762 378.041 83.6228C368.395 99.3709 363.523 123.584 363.425 156.261C363.326 178.407 365.442 196.763 369.773 211.33C374.202 225.897 380.403 236.773 388.375 243.958C396.348 251.045 405.551 254.588 415.984 254.588ZM582.004 256.803V199.814L705.872 4.63608H756.512V81.9988H727.132L654.642 196.862V199.224H834.023V256.803H582.004ZM728.018 307V239.381L729.495 214.431V4.63608H797.851V307H728.018Z" fill="#DAD420"/>
</g>
<defs>
<clipPath id="clip0_150_2">
<rect width="835" height="315" fill="white"/>
</clipPath>
</defs>
</svg>
