<svg width="26" height="26" viewBox="0 0 26 26" fill="none" xmlns="http://www.w3.org/2000/svg">
<path d="M12.9996 18.217C15.8811 18.217 18.217 15.8811 18.217 12.9996C18.217 10.1181 15.8811 7.78223 12.9996 7.78223C10.1181 7.78223 7.78223 10.1181 7.78223 12.9996C7.78223 15.8811 10.1181 18.217 12.9996 18.217Z" stroke="#B3B3B3" stroke-width="2" stroke-miterlimit="10"/>
<path d="M18.7391 1H7.26087C3.80309 1 1 3.80309 1 7.26087V18.7391C1 22.1969 3.80309 25 7.26087 25H18.7391C22.1969 25 25 22.1969 25 18.7391V7.26087C25 3.80309 22.1969 1 18.7391 1Z" stroke="#B3B3B3" stroke-width="2" stroke-linecap="round" stroke-linejoin="round"/>
<path d="M19.783 7.78229C20.6474 7.78229 21.3482 7.08152 21.3482 6.21707C21.3482 5.35263 20.6474 4.65186 19.783 4.65186C18.9185 4.65186 18.2178 5.35263 18.2178 6.21707C18.2178 7.08152 18.9185 7.78229 19.783 7.78229Z" fill="#B3B3B3"/>
</svg>
