<svg width="22" height="26" viewBox="0 0 22 26" fill="none" xmlns="http://www.w3.org/2000/svg">
<path d="M10.0015 8L6.00146 25" stroke="#B3B3B3" stroke-width="2" stroke-linecap="round" stroke-linejoin="round"/>
<path d="M2.69393 16.5692C1.82402 15.2716 1.2702 13.7882 1.07687 12.238C0.883546 10.6878 1.05609 9.11386 1.58067 7.64235C2.10525 6.17085 2.96728 4.84271 4.09765 3.76439C5.22803 2.68608 6.59531 1.88758 8.0899 1.43291C9.58448 0.978246 11.1648 0.880051 12.7042 1.1462C14.2436 1.41235 15.6992 2.03544 16.9543 2.96553C18.2095 3.89561 19.2293 5.10682 19.932 6.50207C20.6347 7.89732 21.0008 9.43779 21.0009 11C21.0009 16.5228 17.0009 20 13.0009 20C9.00087 20 7.79693 17.3667 7.79693 17.3667" stroke="#B3B3B3" stroke-width="2" stroke-linecap="round" stroke-linejoin="round"/>
</svg>
